<?xml version="1.0" encoding="utf-8"?>
<!-- Generator: Adobe Illustrator 18.0.0, SVG Export Plug-In . SVG Version: 6.00 Build 0)  -->
<!DOCTYPE svg PUBLIC "-//W3C//DTD SVG 1.1//EN" "http://www.w3.org/Graphics/SVG/1.1/DTD/svg11.dtd">
<svg version="1.1" id="Layer_1" xmlns="http://www.w3.org/2000/svg" xmlns:xlink="http://www.w3.org/1999/xlink" x="0px" y="0px"
	 width="1400px" height="980px" viewBox="0 0 1400 980" enable-background="new 0 0 1400 980" xml:space="preserve">
   <g>
	<path fill="#63B046" d="M1185.1,320.2l-17.2-6.8c0,0-13.8,12.8-14.7,25l-2.5-30.5l-19.4-4.7V334c0,0-4.7-16.2-19.6-26.8l-18.2,5.6
		c0,0,16.4,12.3,16.4,31.2v45.4c0,8.8,7.2,16,16,16h29.7c8.8,0,16-7.2,16-16v-45.4C1171.6,344.1,1169.9,334.6,1185.1,320.2z"/>
	<path fill="#63B046" d="M1190.2,225.2c-5-15.7-19.7-27.1-37.1-27.1c-15.4,0-28.6,8.9-35,21.9c-1.3-0.1-2.7-0.2-4-0.2
		c-21.5,0-39,17.5-39,39s17.5,39,39,39c0.1,0,0.2,0,0.4,0c7,10.5,18.9,17.4,32.4,17.4c11.7,0,22.2-5.2,29.3-13.4
		c1.6,0.2,3.1,0.3,4.7,0.3c21.5,0,39-17.5,39-39C1219.9,244.7,1207.2,229.3,1190.2,225.2z"/>
	<path fill="#64A648" d="M1137.5,253c-3.9-12.3-15.5-21.3-29.1-21.3c-12.1,0-22.5,7-27.4,17.1c-1-0.1-2.1-0.2-3.1-0.2
		c-16.9,0-30.6,13.7-30.6,30.6c0,16.9,13.7,30.6,30.6,30.6c0.1,0,0.2,0,0.3,0c5.5,8.2,14.8,13.6,25.4,13.6c9.2,0,17.4-4.1,23-10.5
		c1.2,0.1,2.5,0.2,3.7,0.2c16.9,0,30.6-13.7,30.6-30.6C1160.9,268.3,1150.9,256.3,1137.5,253z"/>
	<path fill="#64A648" d="M1215.5,260.9c-3.9-12.3-15.5-21.3-29.1-21.3c-12.1,0-22.5,7-27.4,17.1c-1-0.1-2.1-0.2-3.1-0.2
		c-16.9,0-30.6,13.7-30.6,30.6c0,16.9,13.7,30.6,30.6,30.6c0.1,0,0.2,0,0.3,0c5.5,8.2,14.8,13.6,25.4,13.6c9.2,0,17.4-4.1,23-10.5
		c1.2,0.1,2.5,0.2,3.7,0.2c16.9,0,30.6-13.7,30.6-30.6C1238.8,276.2,1228.9,264.2,1215.5,260.9z"/>
</g>
</svg>