<?xml version="1.0" encoding="utf-8"?>
<!-- Generator: Adobe Illustrator 18.0.0, SVG Export Plug-In . SVG Version: 6.00 Build 0)  -->
<!DOCTYPE svg PUBLIC "-//W3C//DTD SVG 1.1//EN" "http://www.w3.org/Graphics/SVG/1.1/DTD/svg11.dtd">
<svg version="1.1" id="Layer_1" xmlns="http://www.w3.org/2000/svg" xmlns:xlink="http://www.w3.org/1999/xlink" x="0px" y="0px"
	 width="1400px" height="980px" viewBox="0 0 1400 980" enable-background="new 0 0 1400 980" xml:space="preserve">
   <g>
	<rect x="929.7" y="576.5" fill="#5E9654" width="8.6" height="36.7"/>
	<rect x="915.5" y="577.6" fill="#5E9654" width="8.6" height="36.7"/>
	<rect x="922.1" y="570.6" fill="#63B046" width="8.6" height="36.7"/>
	<path fill="#EF8522" d="M931.2,603.6h-4.8h-4.8c-18.2,0-33,21.7-33,48.5l7.2,60.6c3.6,30.7,9.9,60.6,18.7,89l3.3,10.6
		c2.6,8.5,14.6,8.5,17.2,0l3.3-10.6c8.8-28.4,15.1-58.3,18.7-89l7.2-60.6C964.2,625.3,949.4,603.6,931.2,603.6z"/>
	<ellipse fill="#F49B51" cx="909.5" cy="622" rx="14.6" ry="1.7"/>
	<ellipse fill="#F49B51" cx="948.6" cy="637.4" rx="14.6" ry="1.7"/>
	<ellipse fill="#F49B51" cx="903.3" cy="668.4" rx="14.6" ry="1.7"/>
	<ellipse fill="#F49B51" cx="946.5" cy="687.2" rx="14.6" ry="1.7"/>
	<ellipse fill="#F49B51" cx="910.4" cy="714" rx="14.6" ry="1.7"/>
	<ellipse fill="#F49B51" cx="938.4" cy="746.1" rx="14.6" ry="1.7"/>
</g>
</svg>