<?xml version="1.0" encoding="utf-8"?>
<!-- Generator: Adobe Illustrator 18.0.0, SVG Export Plug-In . SVG Version: 6.00 Build 0)  -->
<!DOCTYPE svg PUBLIC "-//W3C//DTD SVG 1.1//EN" "http://www.w3.org/Graphics/SVG/1.1/DTD/svg11.dtd">
<svg version="1.1" id="Layer_1" xmlns="http://www.w3.org/2000/svg" xmlns:xlink="http://www.w3.org/1999/xlink" x="0px" y="0px"
	 width="1400px" height="980px" viewBox="0 0 1400 980" enable-background="new 0 0 1400 980" xml:space="preserve">
   <g>
	<path fill="#E7EDA7" d="M949.7,289.1c-2.2-17.5-13.7-31.6-29-37.9c1.7-16.4-5.2-33.2-19.5-43.5c-8.9-6.4-19.3-9.2-29.5-8.8
		c-7.4-7-17.1-11.7-28-12.8c-17.6-1.7-33.8,6.4-43.4,19.9c-15.6-5.3-33.5-2.3-46.8,9.4c-13.2,11.7-18.3,29.2-14.9,45.3
		c-14.5,7.9-24.5,23-24.9,40.7c-0.4,17.7,8.9,33.3,23,41.8c-4.1,16,0.2,33.6,12.9,45.9c12.7,12.3,30.4,16.1,46.3,11.5
		c8.9,13.9,24.8,22.7,42.4,21.8c17.6-0.9,32.5-11.4,39.9-26.1c16.2,2.9,33.5-2.7,44.8-16.2c11.3-13.6,13.8-31.5,8.1-47
		C944.2,323,951.9,306.6,949.7,289.1z"/>
	<path fill="#64A648" d="M827.8,408.7c0,0,36.2-95.4,121.9-119.7c0,0,29.1,134.5-123.1,132.6C826.5,421.7,825,415.3,827.8,408.7z"/>
	<path fill="#64A648" d="M839.4,408.5c0,0-39.7-94-126.1-115.1c0,0-24.1,135.5,127.9,128C841.1,421.4,842.5,415,839.4,408.5z"/>
	<path fill="#63B046" d="M830.1,316.3c0,0,67.1,16.5,54.3,73.3c-3.4,14.9-14.3,27-29,31.1c-5.5,1.5-12.2,2.6-20,2.6
		c0,0-9.7-0.2-21.1-2.9c-22-5.1-38.6-24-38.9-46.5C775.2,355.1,785.9,332.3,830.1,316.3z"/>
	<path fill="#8FC178" d="M844.5,406.4c0,0-4.7-9.6,2-19.9c6.6-10.3,9.6-14.2,10.8-18.9c0,0-9.5,12.6-13,16.5
		c-3.5,3.9-6.4,8.5-6.4,8.5s-3.7-16.9,12.9-34.3c0,0-9.8,5-13.8,10.3c0,0,0-10.7,7.2-20.8c0,0-6.6,4.7-8.8,9.7c0,0-1.2-17.8-4.5-28
		c-3.3,10.1-4.5,28-4.5,28c-2.2-5-8.8-9.7-8.8-9.7c7.2,10.1,7.2,20.8,7.2,20.8c-4.1-5.3-13.8-10.3-13.8-10.3
		c16.6,17.3,12.9,34.3,12.9,34.3s-2.9-4.6-6.4-8.5c-3.5-3.9-13-16.5-13-16.5c1.2,4.7,4.2,8.6,10.8,18.9c6.6,10.3,2,19.9,2,19.9
		c-9.8-4.4-21.6-20.1-21.6-20.1c10.6,24.6,27.9,36,27.9,36l7.5-0.6l7.5,0.6c0,0,17.3-11.4,27.9-36
		C866.1,386.3,854.3,402,844.5,406.4z"/>
</g>
</svg>