<?xml version="1.0" encoding="utf-8"?>
<!-- Generator: Adobe Illustrator 18.0.0, SVG Export Plug-In . SVG Version: 6.00 Build 0)  -->
<!DOCTYPE svg PUBLIC "-//W3C//DTD SVG 1.1//EN" "http://www.w3.org/Graphics/SVG/1.1/DTD/svg11.dtd">
<svg version="1.1" id="Layer_1" xmlns="http://www.w3.org/2000/svg" xmlns:xlink="http://www.w3.org/1999/xlink" x="0px" y="0px"
	 width="1400px" height="980px" viewBox="0 0 1400 980" enable-background="new 0 0 1400 980" xml:space="preserve">
   <g>
	<g>
		<path fill="#EEB738" d="M523.3,632.3h-7.2c-3.4,0-6.2,2.8-6.2,6.2v7.2c0,3.4,2.8,6.2,6.2,6.2h7.2c3.4,0,6.2-2.8,6.2-6.2v-7.2
			C529.5,635.1,526.7,632.3,523.3,632.3z"/>
		<path fill="#EEB738" d="M523.3,653.3h-7.2c-3.4,0-6.2,2.8-6.2,6.2v7.2c0,3.4,2.8,6.2,6.2,6.2h7.2c3.4,0,6.2-2.8,6.2-6.2v-7.2
			C529.5,656.1,526.7,653.3,523.3,653.3z"/>
		<path fill="#EEB738" d="M523.3,674.3h-7.2c-3.4,0-6.2,2.8-6.2,6.2v7.2c0,3.4,2.8,6.2,6.2,6.2h7.2c3.4,0,6.2-2.8,6.2-6.2v-7.2
			C529.5,677.1,526.7,674.3,523.3,674.3z"/>
		<path fill="#EEB738" d="M523.3,695.4h-7.2c-3.4,0-6.2,2.8-6.2,6.2v7.2c0,3.4,2.8,6.2,6.2,6.2h7.2c3.4,0,6.2-2.8,6.2-6.2v-7.2
			C529.5,698.1,526.7,695.4,523.3,695.4z"/>
		<path fill="#F2CE37" d="M543.7,611.3h-7.2c-3.4,0-6.2,2.8-6.2,6.2v7.2c0,3.4,2.8,6.2,6.2,6.2h7.2c3.4,0,6.2-2.8,6.2-6.2v-7.2
			C549.9,614.1,547.1,611.3,543.7,611.3z"/>
		<path fill="#F2CE37" d="M543.7,632.3h-7.2c-3.4,0-6.2,2.8-6.2,6.2v7.2c0,3.4,2.8,6.2,6.2,6.2h7.2c3.4,0,6.2-2.8,6.2-6.2v-7.2
			C549.9,635.1,547.1,632.3,543.7,632.3z"/>
		<path fill="#F2CE37" d="M543.7,653.3h-7.2c-3.4,0-6.2,2.8-6.2,6.2v7.2c0,3.4,2.8,6.2,6.2,6.2h7.2c3.4,0,6.2-2.8,6.2-6.2v-7.2
			C549.9,656.1,547.1,653.3,543.7,653.3z"/>
		<path fill="#F2CE37" d="M543.7,674.3h-7.2c-3.4,0-6.2,2.8-6.2,6.2v7.2c0,3.4,2.8,6.2,6.2,6.2h7.2c3.4,0,6.2-2.8,6.2-6.2v-7.2
			C549.9,677.1,547.1,674.3,543.7,674.3z"/>
		<path fill="#F2CE37" d="M543.7,695.4h-7.2c-3.4,0-6.2,2.8-6.2,6.2v7.2c0,3.4,2.8,6.2,6.2,6.2h7.2c3.4,0,6.2-2.8,6.2-6.2v-7.2
			C549.9,698.1,547.1,695.4,543.7,695.4z"/>
		<path fill="#F4EB38" d="M564.1,590.3h-7.2c-3.4,0-6.2,2.8-6.2,6.2v7.2c0,3.4,2.8,6.2,6.2,6.2h7.2c3.4,0,6.2-2.8,6.2-6.2v-7.2
			C570.3,593.1,567.5,590.3,564.1,590.3z"/>
		<path fill="#F4EB38" d="M564.1,611.3h-7.2c-3.4,0-6.2,2.8-6.2,6.2v7.2c0,3.4,2.8,6.2,6.2,6.2h7.2c3.4,0,6.2-2.8,6.2-6.2v-7.2
			C570.3,614.1,567.5,611.3,564.1,611.3z"/>
		<path fill="#F4EB38" d="M564.1,632.3h-7.2c-3.4,0-6.2,2.8-6.2,6.2v7.2c0,3.4,2.8,6.2,6.2,6.2h7.2c3.4,0,6.2-2.8,6.2-6.2v-7.2
			C570.3,635.1,567.5,632.3,564.1,632.3z"/>
		<path fill="#F4EB38" d="M564.1,653.3h-7.2c-3.4,0-6.2,2.8-6.2,6.2v7.2c0,3.4,2.8,6.2,6.2,6.2h7.2c3.4,0,6.2-2.8,6.2-6.2v-7.2
			C570.3,656.1,567.5,653.3,564.1,653.3z"/>
		<path fill="#F4EB38" d="M564.1,674.3h-7.2c-3.4,0-6.2,2.8-6.2,6.2v7.2c0,3.4,2.8,6.2,6.2,6.2h7.2c3.4,0,6.2-2.8,6.2-6.2v-7.2
			C570.3,677.1,567.5,674.3,564.1,674.3z"/>
		<path fill="#F4EB38" d="M564.1,695.4h-7.2c-3.4,0-6.2,2.8-6.2,6.2v7.2c0,3.4,2.8,6.2,6.2,6.2h7.2c3.4,0,6.2-2.8,6.2-6.2v-7.2
			C570.3,698.1,567.5,695.4,564.1,695.4z"/>
		<path fill="#F2CE37" d="M584.5,611.3h-7.2c-3.4,0-6.2,2.8-6.2,6.2v7.2c0,3.4,2.8,6.2,6.2,6.2h7.2c3.4,0,6.2-2.8,6.2-6.2v-7.2
			C590.7,614.1,587.9,611.3,584.5,611.3z"/>
		<path fill="#F2CE37" d="M584.5,632.3h-7.2c-3.4,0-6.2,2.8-6.2,6.2v7.2c0,3.4,2.8,6.2,6.2,6.2h7.2c3.4,0,6.2-2.8,6.2-6.2v-7.2
			C590.7,635.1,587.9,632.3,584.5,632.3z"/>
		<path fill="#F2CE37" d="M584.5,653.3h-7.2c-3.4,0-6.2,2.8-6.2,6.2v7.2c0,3.4,2.8,6.2,6.2,6.2h7.2c3.4,0,6.2-2.8,6.2-6.2v-7.2
			C590.7,656.1,587.9,653.3,584.5,653.3z"/>
		<path fill="#F2CE37" d="M584.5,674.3h-7.2c-3.4,0-6.2,2.8-6.2,6.2v7.2c0,3.4,2.8,6.2,6.2,6.2h7.2c3.4,0,6.2-2.8,6.2-6.2v-7.2
			C590.7,677.1,587.9,674.3,584.5,674.3z"/>
		<path fill="#F2CE37" d="M584.5,695.4h-7.2c-3.4,0-6.2,2.8-6.2,6.2v7.2c0,3.4,2.8,6.2,6.2,6.2h7.2c3.4,0,6.2-2.8,6.2-6.2v-7.2
			C590.7,698.1,587.9,695.4,584.5,695.4z"/>
		<path fill="#EEB738" d="M604.9,632.3h-7.2c-3.4,0-6.2,2.8-6.2,6.2v7.2c0,3.4,2.8,6.2,6.2,6.2h7.2c3.4,0,6.2-2.8,6.2-6.2v-7.2
			C611.1,635.1,608.3,632.3,604.9,632.3z"/>
		<path fill="#EEB738" d="M604.9,653.3h-7.2c-3.4,0-6.2,2.8-6.2,6.2v7.2c0,3.4,2.8,6.2,6.2,6.2h7.2c3.4,0,6.2-2.8,6.2-6.2v-7.2
			C611.1,656.1,608.3,653.3,604.9,653.3z"/>
		<path fill="#EEB738" d="M604.9,674.3h-7.2c-3.4,0-6.2,2.8-6.2,6.2v7.2c0,3.4,2.8,6.2,6.2,6.2h7.2c3.4,0,6.2-2.8,6.2-6.2v-7.2
			C611.1,677.1,608.3,674.3,604.9,674.3z"/>
		<path fill="#EEB738" d="M604.9,695.4h-7.2c-3.4,0-6.2,2.8-6.2,6.2v7.2c0,3.4,2.8,6.2,6.2,6.2h7.2c3.4,0,6.2-2.8,6.2-6.2v-7.2
			C611.1,698.1,608.3,695.4,604.9,695.4z"/>
		<path fill="#EEB738" d="M523.3,716.8h-7.2c-3.4,0-6.2,2.8-6.2,6.2v7.2c0,3.4,2.8,6.2,6.2,6.2h7.2c3.4,0,6.2-2.8,6.2-6.2V723
			C529.5,719.6,526.7,716.8,523.3,716.8z"/>
		<path fill="#F2CE37" d="M543.7,716.8h-7.2c-3.4,0-6.2,2.8-6.2,6.2v7.2c0,3.4,2.8,6.2,6.2,6.2h7.2c3.4,0,6.2-2.8,6.2-6.2V723
			C549.9,719.6,547.1,716.8,543.7,716.8z"/>
		<path fill="#F4EB38" d="M564.1,716.8h-7.2c-3.4,0-6.2,2.8-6.2,6.2v7.2c0,3.4,2.8,6.2,6.2,6.2h7.2c3.4,0,6.2-2.8,6.2-6.2V723
			C570.3,719.6,567.5,716.8,564.1,716.8z"/>
		<path fill="#F2CE37" d="M584.5,716.8h-7.2c-3.4,0-6.2,2.8-6.2,6.2v7.2c0,3.4,2.8,6.2,6.2,6.2h7.2c3.4,0,6.2-2.8,6.2-6.2V723
			C590.7,719.6,587.9,716.8,584.5,716.8z"/>
		<path fill="#EEB738" d="M604.9,716.8h-7.2c-3.4,0-6.2,2.8-6.2,6.2v7.2c0,3.4,2.8,6.2,6.2,6.2h7.2c3.4,0,6.2-2.8,6.2-6.2V723
			C611.1,719.6,608.3,716.8,604.9,716.8z"/>
		<path fill="#EEB738" d="M523.3,738.3h-7.2c-3.4,0-6.2,2.8-6.2,6.2v7.2c0,3.4,2.8,6.2,6.2,6.2h7.2c3.4,0,6.2-2.8,6.2-6.2v-7.2
			C529.5,741,526.7,738.3,523.3,738.3z"/>
		<path fill="#F2CE37" d="M543.7,738.3h-7.2c-3.4,0-6.2,2.8-6.2,6.2v7.2c0,3.4,2.8,6.2,6.2,6.2h7.2c3.4,0,6.2-2.8,6.2-6.2v-7.2
			C549.9,741,547.1,738.3,543.7,738.3z"/>
		<path fill="#F4EB38" d="M564.1,738.3h-7.2c-3.4,0-6.2,2.8-6.2,6.2v7.2c0,3.4,2.8,6.2,6.2,6.2h7.2c3.4,0,6.2-2.8,6.2-6.2v-7.2
			C570.3,741,567.5,738.3,564.1,738.3z"/>
		<path fill="#F2CE37" d="M584.5,738.3h-7.2c-3.4,0-6.2,2.8-6.2,6.2v7.2c0,3.4,2.8,6.2,6.2,6.2h7.2c3.4,0,6.2-2.8,6.2-6.2v-7.2
			C590.7,741,587.9,738.3,584.5,738.3z"/>
		<path fill="#EEB738" d="M604.9,738.3h-7.2c-3.4,0-6.2,2.8-6.2,6.2v7.2c0,3.4,2.8,6.2,6.2,6.2h7.2c3.4,0,6.2-2.8,6.2-6.2v-7.2
			C611.1,741,608.3,738.3,604.9,738.3z"/>
		<path fill="#EEB738" d="M523.3,759.7h-7.2c-3.4,0-6.2,2.8-6.2,6.2v7.2c0,3.4,2.8,6.2,6.2,6.2h7.2c3.4,0,6.2-2.8,6.2-6.2v-7.2
			C529.5,762.5,526.7,759.7,523.3,759.7z"/>
		<path fill="#F2CE37" d="M543.7,759.7h-7.2c-3.4,0-6.2,2.8-6.2,6.2v7.2c0,3.4,2.8,6.2,6.2,6.2h7.2c3.4,0,6.2-2.8,6.2-6.2v-7.2
			C549.9,762.5,547.1,759.7,543.7,759.7z"/>
		<path fill="#F4EB38" d="M564.1,759.7h-7.2c-3.4,0-6.2,2.8-6.2,6.2v7.2c0,3.4,2.8,6.2,6.2,6.2h7.2c3.4,0,6.2-2.8,6.2-6.2v-7.2
			C570.3,762.5,567.5,759.7,564.1,759.7z"/>
		<path fill="#F2CE37" d="M584.5,759.7h-7.2c-3.4,0-6.2,2.8-6.2,6.2v7.2c0,3.4,2.8,6.2,6.2,6.2h7.2c3.4,0,6.2-2.8,6.2-6.2v-7.2
			C590.7,762.5,587.9,759.7,584.5,759.7z"/>
		<path fill="#EEB738" d="M604.9,759.7h-7.2c-3.4,0-6.2,2.8-6.2,6.2v7.2c0,3.4,2.8,6.2,6.2,6.2h7.2c3.4,0,6.2-2.8,6.2-6.2v-7.2
			C611.1,762.5,608.3,759.7,604.9,759.7z"/>
	</g>
	<path fill="#63B046" d="M611.1,701.6c-37.3,22.4-50.6,65.5-50.6,65.5c-10.2-48.2-50.6-79.3-50.6-79.3c-29.1,108,14.9,127.8,38,131
		v20.6c0,5.1,4.1,9.3,9.3,9.3h3.1c5.1,0,9.3-4.1,9.3-9.3v-23.6C640,785.7,611.1,701.6,611.1,701.6z"/>
</g>
</svg>