<?xml version="1.0" encoding="utf-8"?>
<!-- Generator: Adobe Illustrator 18.0.0, SVG Export Plug-In . SVG Version: 6.00 Build 0)  -->
<!DOCTYPE svg PUBLIC "-//W3C//DTD SVG 1.1//EN" "http://www.w3.org/Graphics/SVG/1.1/DTD/svg11.dtd">
<svg version="1.1" id="Layer_1" xmlns="http://www.w3.org/2000/svg" xmlns:xlink="http://www.w3.org/1999/xlink" x="0px" y="0px"
	 width="1400px" height="980px" viewBox="0 0 1400 980" enable-background="new 0 0 1400 980" xml:space="preserve">
   <g>
	<path fill="#5E9654" d="M764.7,587.9L764.7,587.9c-18.3,0-33.1,14.8-33.1,33.1v174.5c0,18,9.9,34.5,25.8,43c4.4,2.3,9.6,2.4,14,0
		l0.2-0.1c16-8.4,26.1-25,26.1-43.1V621C797.8,602.7,783,587.9,764.7,587.9z"/>
	<path fill="#63B046" d="M768.9,838.3l-0.1,0.1c-2.6,2.3-5.7,2.3-8.3,0l0,0c-9.4-8.5-15.3-25-15.3-43V621c0-18.3,8.8-33.1,19.6-33.1
		l0,0c10.8,0,19.6,14.8,19.6,33.1v174.3C784.3,813.3,778.4,829.9,768.9,838.3z"/>
	<circle fill="#8CC373" cx="766" cy="614.5" r="1.3"/>
	<circle fill="#8CC373" cx="743.8" cy="628.3" r="1.3"/>
	<circle fill="#8CC373" cx="775.8" cy="646.4" r="1.3"/>
	<circle fill="#8CC373" cx="761" cy="634.3" r="1.3"/>
	<circle fill="#8CC373" cx="789" cy="621.6" r="1.3"/>
	<circle fill="#8CC373" cx="793.2" cy="662.8" r="1.3"/>
	<circle fill="#8CC373" cx="770.6" cy="665.4" r="1.3"/>
	<circle fill="#8CC373" cx="741.2" cy="683.2" r="1.3"/>
	<circle fill="#8CC373" cx="753.6" cy="660.2" r="1.3"/>
	<circle fill="#8CC373" cx="766" cy="677.1" r="1.3"/>
	<circle fill="#8CC373" cx="743.8" cy="690.9" r="1.3"/>
	<circle fill="#8CC373" cx="775.8" cy="709" r="1.3"/>
	<circle fill="#8CC373" cx="761" cy="696.9" r="1.3"/>
	<circle fill="#8CC373" cx="789" cy="684.1" r="1.3"/>
	<circle fill="#8CC373" cx="793.2" cy="725.4" r="1.3"/>
	<circle fill="#8CC373" cx="770.6" cy="727.9" r="1.3"/>
	<circle fill="#8CC373" cx="741.2" cy="745.8" r="1.3"/>
	<circle fill="#8CC373" cx="753.6" cy="722.8" r="1.3"/>
	<circle fill="#8CC373" cx="763.5" cy="737.8" r="1.3"/>
	<circle fill="#8CC373" cx="741.3" cy="751.6" r="1.3"/>
	<circle fill="#8CC373" cx="773.3" cy="769.7" r="1.3"/>
	<circle fill="#8CC373" cx="758.5" cy="757.6" r="1.3"/>
	<circle fill="#8CC373" cx="786.5" cy="744.8" r="1.3"/>
	<circle fill="#8CC373" cx="790.7" cy="786" r="1.3"/>
	<circle fill="#8CC373" cx="768.1" cy="788.6" r="1.3"/>
	<circle fill="#8CC373" cx="738.7" cy="806.5" r="1.3"/>
	<circle fill="#8CC373" cx="751.1" cy="783.5" r="1.3"/>
</g>
</svg>