<?xml version="1.0" encoding="utf-8"?>
<!-- Generator: Adobe Illustrator 18.0.0, SVG Export Plug-In . SVG Version: 6.00 Build 0)  -->
<!DOCTYPE svg PUBLIC "-//W3C//DTD SVG 1.1//EN" "http://www.w3.org/Graphics/SVG/1.1/DTD/svg11.dtd">
<svg version="1.1" id="Layer_1" xmlns="http://www.w3.org/2000/svg" xmlns:xlink="http://www.w3.org/1999/xlink" x="0px" y="0px"
	 width="1400px" height="980px" viewBox="0 0 1400 980" enable-background="new 0 0 1400 980" xml:space="preserve">
   <g>
	<path fill="#5D3593" d="M643.3,374.3l-20.9-146.5c-4.8-33.5-30.1-60.5-63.2-67.4c-33.2,6.9-58.4,33.9-63.2,67.4L475,374.3
		c-6.4,50.7,33.1,95.5,84.1,95.5l0,0l0,0C610.2,469.8,649.7,425,643.3,374.3z"/>
	<path fill="#63B046" d="M567.5,155v-15.2c0-4.6-3.7-8.3-8.3-8.3l0,0l0,0c-4.6,0-8.3,3.7-8.3,8.3V155
		c-39.3,11.3-42.2,39.6-42.2,39.6c20.7,2.8,34.8-15.1,34.8-15.1c-3.4,26,15.7,39.3,15.7,39.3s19.2-13.3,15.7-39.3
		c0,0,14.2,17.9,34.8,15.1C609.7,194.6,606.8,166.3,567.5,155z"/>
</g>
</svg>