<?xml version="1.0" encoding="utf-8"?>
<!-- Generator: Adobe Illustrator 18.0.0, SVG Export Plug-In . SVG Version: 6.00 Build 0)  -->
<!DOCTYPE svg PUBLIC "-//W3C//DTD SVG 1.1//EN" "http://www.w3.org/Graphics/SVG/1.1/DTD/svg11.dtd">
<svg version="1.1" id="Layer_1" xmlns="http://www.w3.org/2000/svg" xmlns:xlink="http://www.w3.org/1999/xlink" x="0px" y="0px"
	 width="1400px" height="980px" viewBox="0 0 1400 980" enable-background="new 0 0 1400 980" xml:space="preserve">
   <g>
    <path fill="#E74F25" d="M288.1,245.8h-25.8c-45.5,0-82.4,36.9-82.4,82.4v7.2c0,45.5,36.9,82.4,82.4,82.4h25.8
      c45.5,0,82.4-36.9,82.4-82.4v-7.2C370.5,282.7,333.6,245.8,288.1,245.8z"/>
    <path fill="#63B046" d="M283.6,227.7V215c0-3.9-3.7-7-8.3-7l0,0l0,0c-4.6,0-8.3,3.1-8.3,7v12.7c-39.3,9.5-42.2,33.2-42.2,33.2
      c20.7,2.3,34.8-12.6,34.8-12.6c-3.4,21.8,15.7,32.9,15.7,32.9s19.2-11.1,15.7-32.9c0,0,14.2,15,34.8,12.6
      C325.8,260.9,322.9,237.2,283.6,227.7z"/>
  </g>
</svg>