<?xml version="1.0" encoding="utf-8"?>
<!-- Generator: Adobe Illustrator 18.0.0, SVG Export Plug-In . SVG Version: 6.00 Build 0)  -->
<!DOCTYPE svg PUBLIC "-//W3C//DTD SVG 1.1//EN" "http://www.w3.org/Graphics/SVG/1.1/DTD/svg11.dtd">
<svg version="1.1" id="Layer_1" xmlns="http://www.w3.org/2000/svg" xmlns:xlink="http://www.w3.org/1999/xlink" x="0px" y="0px"
	 width="1400px" height="980px" viewBox="0 0 1400 980" enable-background="new 0 0 1400 980" xml:space="preserve">
<g>
	<path fill="#5D3593" d="M643.3,374.3l-20.9-146.5c-4.8-33.5-30.1-60.5-63.2-67.4c-33.2,6.9-58.4,33.9-63.2,67.4L475,374.3
		c-6.4,50.7,33.1,95.5,84.1,95.5l0,0l0,0C610.2,469.8,649.7,425,643.3,374.3z"/>
	<path fill="#63B046" d="M567.5,155v-15.2c0-4.6-3.7-8.3-8.3-8.3l0,0l0,0c-4.6,0-8.3,3.7-8.3,8.3V155
		c-39.3,11.3-42.2,39.6-42.2,39.6c20.7,2.8,34.8-15.1,34.8-15.1c-3.4,26,15.7,39.3,15.7,39.3s19.2-13.3,15.7-39.3
		c0,0,14.2,17.9,34.8,15.1C609.7,194.6,606.8,166.3,567.5,155z"/>
</g>
<g>
	<path fill="#E74F25" d="M288.1,245.8h-25.8c-45.5,0-82.4,36.9-82.4,82.4v7.2c0,45.5,36.9,82.4,82.4,82.4h25.8
		c45.5,0,82.4-36.9,82.4-82.4v-7.2C370.5,282.7,333.6,245.8,288.1,245.8z"/>
	<path fill="#63B046" d="M283.6,227.7V215c0-3.9-3.7-7-8.3-7l0,0l0,0c-4.6,0-8.3,3.1-8.3,7v12.7c-39.3,9.5-42.2,33.2-42.2,33.2
		c20.7,2.3,34.8-12.6,34.8-12.6c-3.4,21.8,15.7,32.9,15.7,32.9s19.2-11.1,15.7-32.9c0,0,14.2,15,34.8,12.6
		C325.8,260.9,322.9,237.2,283.6,227.7z"/>
</g>
<g>
	<path fill="#E7EDA7" d="M949.7,289.1c-2.2-17.5-13.7-31.6-29-37.9c1.7-16.4-5.2-33.2-19.5-43.5c-8.9-6.4-19.3-9.2-29.5-8.8
		c-7.4-7-17.1-11.7-28-12.8c-17.6-1.7-33.8,6.4-43.4,19.9c-15.6-5.3-33.5-2.3-46.8,9.4c-13.2,11.7-18.3,29.2-14.9,45.3
		c-14.5,7.9-24.5,23-24.9,40.7c-0.4,17.7,8.9,33.3,23,41.8c-4.1,16,0.2,33.6,12.9,45.9c12.7,12.3,30.4,16.1,46.3,11.5
		c8.9,13.9,24.8,22.7,42.4,21.8c17.6-0.9,32.5-11.4,39.9-26.1c16.2,2.9,33.5-2.7,44.8-16.2c11.3-13.6,13.8-31.5,8.1-47
		C944.2,323,951.9,306.6,949.7,289.1z"/>
	<path fill="#64A648" d="M827.8,408.7c0,0,36.2-95.4,121.9-119.7c0,0,29.1,134.5-123.1,132.6C826.5,421.7,825,415.3,827.8,408.7z"/>
	<path fill="#64A648" d="M839.4,408.5c0,0-39.7-94-126.1-115.1c0,0-24.1,135.5,127.9,128C841.1,421.4,842.5,415,839.4,408.5z"/>
	<path fill="#63B046" d="M830.1,316.3c0,0,67.1,16.5,54.3,73.3c-3.4,14.9-14.3,27-29,31.1c-5.5,1.5-12.2,2.6-20,2.6
		c0,0-9.7-0.2-21.1-2.9c-22-5.1-38.6-24-38.9-46.5C775.2,355.1,785.9,332.3,830.1,316.3z"/>
	<path fill="#8FC178" d="M844.5,406.4c0,0-4.7-9.6,2-19.9c6.6-10.3,9.6-14.2,10.8-18.9c0,0-9.5,12.6-13,16.5
		c-3.5,3.9-6.4,8.5-6.4,8.5s-3.7-16.9,12.9-34.3c0,0-9.8,5-13.8,10.3c0,0,0-10.7,7.2-20.8c0,0-6.6,4.7-8.8,9.7c0,0-1.2-17.8-4.5-28
		c-3.3,10.1-4.5,28-4.5,28c-2.2-5-8.8-9.7-8.8-9.7c7.2,10.1,7.2,20.8,7.2,20.8c-4.1-5.3-13.8-10.3-13.8-10.3
		c16.6,17.3,12.9,34.3,12.9,34.3s-2.9-4.6-6.4-8.5c-3.5-3.9-13-16.5-13-16.5c1.2,4.7,4.2,8.6,10.8,18.9c6.6,10.3,2,19.9,2,19.9
		c-9.8-4.4-21.6-20.1-21.6-20.1c10.6,24.6,27.9,36,27.9,36l7.5-0.6l7.5,0.6c0,0,17.3-11.4,27.9-36
		C866.1,386.3,854.3,402,844.5,406.4z"/>
</g>
<g>
	<path fill="#63B046" d="M1185.1,320.2l-17.2-6.8c0,0-13.8,12.8-14.7,25l-2.5-30.5l-19.4-4.7V334c0,0-4.7-16.2-19.6-26.8l-18.2,5.6
		c0,0,16.4,12.3,16.4,31.2v45.4c0,8.8,7.2,16,16,16h29.7c8.8,0,16-7.2,16-16v-45.4C1171.6,344.1,1169.9,334.6,1185.1,320.2z"/>
	<path fill="#63B046" d="M1190.2,225.2c-5-15.7-19.7-27.1-37.1-27.1c-15.4,0-28.6,8.9-35,21.9c-1.3-0.1-2.7-0.2-4-0.2
		c-21.5,0-39,17.5-39,39s17.5,39,39,39c0.1,0,0.2,0,0.4,0c7,10.5,18.9,17.4,32.4,17.4c11.7,0,22.2-5.2,29.3-13.4
		c1.6,0.2,3.1,0.3,4.7,0.3c21.5,0,39-17.5,39-39C1219.9,244.7,1207.2,229.3,1190.2,225.2z"/>
	<path fill="#64A648" d="M1137.5,253c-3.9-12.3-15.5-21.3-29.1-21.3c-12.1,0-22.5,7-27.4,17.1c-1-0.1-2.1-0.2-3.1-0.2
		c-16.9,0-30.6,13.7-30.6,30.6c0,16.9,13.7,30.6,30.6,30.6c0.1,0,0.2,0,0.3,0c5.5,8.2,14.8,13.6,25.4,13.6c9.2,0,17.4-4.1,23-10.5
		c1.2,0.1,2.5,0.2,3.7,0.2c16.9,0,30.6-13.7,30.6-30.6C1160.9,268.3,1150.9,256.3,1137.5,253z"/>
	<path fill="#64A648" d="M1215.5,260.9c-3.9-12.3-15.5-21.3-29.1-21.3c-12.1,0-22.5,7-27.4,17.1c-1-0.1-2.1-0.2-3.1-0.2
		c-16.9,0-30.6,13.7-30.6,30.6c0,16.9,13.7,30.6,30.6,30.6c0.1,0,0.2,0,0.3,0c5.5,8.2,14.8,13.6,25.4,13.6c9.2,0,17.4-4.1,23-10.5
		c1.2,0.1,2.5,0.2,3.7,0.2c16.9,0,30.6-13.7,30.6-30.6C1238.8,276.2,1228.9,264.2,1215.5,260.9z"/>
</g>
<g>
	<path fill="#64A648" d="M389.4,682.2c0.7-10.7-4.6-20.5-13.1-25.9c-1.6-1-2.7-2.8-2.9-4.7c-0.9-14.1-9.9-26.2-22.7-31.4
		c-1.6-0.6-2.8-2-3.3-3.6c-4.5-13.6-16.9-23.8-32-24.9c-13-0.9-24.9,5.2-32,15.1c-1.3,1.8-3.4,2.7-5.6,2.6c0,0,0,0,0,0
		c-15.2-1-28.8,7.5-35.1,20.4c-0.9,2-2.9,3.2-5,3.4c-13.6,1.3-24.7,12.3-25.6,26.4c-0.9,13.9,8.2,26,21.1,29.5l1.9,76.9
		c0.6,24,18.2,44.2,41.9,48.2c23.7,3.9,46.9-9.5,55.2-32.1l27-73.3C374.9,709.6,388.4,697.8,389.4,682.2z"/>
	<path fill="#5E9654" d="M336.4,651.3c-3.1-10.3-11.4-17.6-21.3-19.7c-1.9-0.4-3.5-1.6-4.3-3.4c-5.7-12.9-18.4-21.1-32.2-21.5
		c-1.7,0-3.3-0.9-4.4-2.2c-9-11.2-24.1-16.5-38.7-12.2c-12.5,3.7-21.5,13.6-24.7,25.3c-0.6,2.1-2.3,3.7-4.4,4.4c0,0,0,0,0,0
		c-14.6,4.3-24.4,17-25.8,31.3c-0.2,2.2-1.6,4-3.5,5c-12.3,6-18.8,20.1-14.8,33.7c3.9,13.3,16.8,21.6,30.1,20.3l28.6,71.4
		c8.9,22.3,32.5,35.1,56.1,30.6c23.6-4.6,40.6-25.3,40.6-49.3l-0.2-78.2C332.4,682.1,340.9,666.3,336.4,651.3z"/>
	<path fill="#63B046" d="M366.4,665.6c-1-10.7-7.9-19.4-17.1-23.4c-1.8-0.8-3.2-2.3-3.6-4.2c-3.2-13.8-14.1-24.3-27.5-27.3
		c-1.7-0.4-3.1-1.5-3.9-3c-6.7-12.7-20.5-20.8-35.7-19.3c-13,1.3-23.7,9.2-29.1,20.1c-1,2-2.9,3.2-5.1,3.4c0,0,0,0,0,0
		c-15.2,1.5-27.2,12.1-31.3,25.8c-0.6,2.1-2.3,3.6-4.4,4.2c-13.2,3.5-22.3,16.2-21,30.2c1.3,13.8,12.3,24.4,25.7,25.6l14.5,75.5
		c4.5,23.6,25.2,40.7,49.2,40.7s44.7-17.1,49.2-40.7l14.7-76.8C356.5,695.1,367.9,681.2,366.4,665.6z"/>
	<g>
		<path fill="#8FC178" d="M314.5,752.7l-24.1,19.2v-21.1l17.2-35.4L289,728.6l-0.5-27.4l7.3-16.9l-12.2,6.3l-6.5-26.8l-6.5,26.8
			l-12.2-6.3l7.3,16.9l-0.5,27.4l-18.7-13.3l17.2,35.4v21.1l-24.1-19.2l20.1,37.3l3.3,22c4.5,1.3,9.2,2,14,2s9.5-0.7,14-2l3.3-22
			L314.5,752.7z"/>
	</g>
</g>
<g>
	<g>
		<path fill="#EEB738" d="M523.3,632.3h-7.2c-3.4,0-6.2,2.8-6.2,6.2v7.2c0,3.4,2.8,6.2,6.2,6.2h7.2c3.4,0,6.2-2.8,6.2-6.2v-7.2
			C529.5,635.1,526.7,632.3,523.3,632.3z"/>
		<path fill="#EEB738" d="M523.3,653.3h-7.2c-3.4,0-6.2,2.8-6.2,6.2v7.2c0,3.4,2.8,6.2,6.2,6.2h7.2c3.4,0,6.2-2.8,6.2-6.2v-7.2
			C529.5,656.1,526.7,653.3,523.3,653.3z"/>
		<path fill="#EEB738" d="M523.3,674.3h-7.2c-3.4,0-6.2,2.8-6.2,6.2v7.2c0,3.4,2.8,6.2,6.2,6.2h7.2c3.4,0,6.2-2.8,6.2-6.2v-7.2
			C529.5,677.1,526.7,674.3,523.3,674.3z"/>
		<path fill="#EEB738" d="M523.3,695.4h-7.2c-3.4,0-6.2,2.8-6.2,6.2v7.2c0,3.4,2.8,6.2,6.2,6.2h7.2c3.4,0,6.2-2.8,6.2-6.2v-7.2
			C529.5,698.1,526.7,695.4,523.3,695.4z"/>
		<path fill="#F2CE37" d="M543.7,611.3h-7.2c-3.4,0-6.2,2.8-6.2,6.2v7.2c0,3.4,2.8,6.2,6.2,6.2h7.2c3.4,0,6.2-2.8,6.2-6.2v-7.2
			C549.9,614.1,547.1,611.3,543.7,611.3z"/>
		<path fill="#F2CE37" d="M543.7,632.3h-7.2c-3.4,0-6.2,2.8-6.2,6.2v7.2c0,3.4,2.8,6.2,6.2,6.2h7.2c3.4,0,6.2-2.8,6.2-6.2v-7.2
			C549.9,635.1,547.1,632.3,543.7,632.3z"/>
		<path fill="#F2CE37" d="M543.7,653.3h-7.2c-3.4,0-6.2,2.8-6.2,6.2v7.2c0,3.4,2.8,6.2,6.2,6.2h7.2c3.4,0,6.2-2.8,6.2-6.2v-7.2
			C549.9,656.1,547.1,653.3,543.7,653.3z"/>
		<path fill="#F2CE37" d="M543.7,674.3h-7.2c-3.4,0-6.2,2.8-6.2,6.2v7.2c0,3.4,2.8,6.2,6.2,6.2h7.2c3.4,0,6.2-2.8,6.2-6.2v-7.2
			C549.9,677.1,547.1,674.3,543.7,674.3z"/>
		<path fill="#F2CE37" d="M543.7,695.4h-7.2c-3.4,0-6.2,2.8-6.2,6.2v7.2c0,3.4,2.8,6.2,6.2,6.2h7.2c3.4,0,6.2-2.8,6.2-6.2v-7.2
			C549.9,698.1,547.1,695.4,543.7,695.4z"/>
		<path fill="#F4EB38" d="M564.1,590.3h-7.2c-3.4,0-6.2,2.8-6.2,6.2v7.2c0,3.4,2.8,6.2,6.2,6.2h7.2c3.4,0,6.2-2.8,6.2-6.2v-7.2
			C570.3,593.1,567.5,590.3,564.1,590.3z"/>
		<path fill="#F4EB38" d="M564.1,611.3h-7.2c-3.4,0-6.2,2.8-6.2,6.2v7.2c0,3.4,2.8,6.2,6.2,6.2h7.2c3.4,0,6.2-2.8,6.2-6.2v-7.2
			C570.3,614.1,567.5,611.3,564.1,611.3z"/>
		<path fill="#F4EB38" d="M564.1,632.3h-7.2c-3.4,0-6.2,2.8-6.2,6.2v7.2c0,3.4,2.8,6.2,6.2,6.2h7.2c3.4,0,6.2-2.8,6.2-6.2v-7.2
			C570.3,635.1,567.5,632.3,564.1,632.3z"/>
		<path fill="#F4EB38" d="M564.1,653.3h-7.2c-3.4,0-6.2,2.8-6.2,6.2v7.2c0,3.4,2.8,6.2,6.2,6.2h7.2c3.4,0,6.2-2.8,6.2-6.2v-7.2
			C570.3,656.1,567.5,653.3,564.1,653.3z"/>
		<path fill="#F4EB38" d="M564.1,674.3h-7.2c-3.4,0-6.2,2.8-6.2,6.2v7.2c0,3.4,2.8,6.2,6.2,6.2h7.2c3.4,0,6.2-2.8,6.2-6.2v-7.2
			C570.3,677.1,567.5,674.3,564.1,674.3z"/>
		<path fill="#F4EB38" d="M564.1,695.4h-7.2c-3.4,0-6.2,2.8-6.2,6.2v7.2c0,3.4,2.8,6.2,6.2,6.2h7.2c3.4,0,6.2-2.8,6.2-6.2v-7.2
			C570.3,698.1,567.5,695.4,564.1,695.4z"/>
		<path fill="#F2CE37" d="M584.5,611.3h-7.2c-3.4,0-6.2,2.8-6.2,6.2v7.2c0,3.4,2.8,6.2,6.2,6.2h7.2c3.4,0,6.2-2.8,6.2-6.2v-7.2
			C590.7,614.1,587.9,611.3,584.5,611.3z"/>
		<path fill="#F2CE37" d="M584.5,632.3h-7.2c-3.4,0-6.2,2.8-6.2,6.2v7.2c0,3.4,2.8,6.2,6.2,6.2h7.2c3.4,0,6.2-2.8,6.2-6.2v-7.2
			C590.7,635.1,587.9,632.3,584.5,632.3z"/>
		<path fill="#F2CE37" d="M584.5,653.3h-7.2c-3.4,0-6.2,2.8-6.2,6.2v7.2c0,3.4,2.8,6.2,6.2,6.2h7.2c3.4,0,6.2-2.8,6.2-6.2v-7.2
			C590.7,656.1,587.9,653.3,584.5,653.3z"/>
		<path fill="#F2CE37" d="M584.5,674.3h-7.2c-3.4,0-6.2,2.8-6.2,6.2v7.2c0,3.4,2.8,6.2,6.2,6.2h7.2c3.4,0,6.2-2.8,6.2-6.2v-7.2
			C590.7,677.1,587.9,674.3,584.5,674.3z"/>
		<path fill="#F2CE37" d="M584.5,695.4h-7.2c-3.4,0-6.2,2.8-6.2,6.2v7.2c0,3.4,2.8,6.2,6.2,6.2h7.2c3.4,0,6.2-2.8,6.2-6.2v-7.2
			C590.7,698.1,587.9,695.4,584.5,695.4z"/>
		<path fill="#EEB738" d="M604.9,632.3h-7.2c-3.4,0-6.2,2.8-6.2,6.2v7.2c0,3.4,2.8,6.2,6.2,6.2h7.2c3.4,0,6.2-2.8,6.2-6.2v-7.2
			C611.1,635.1,608.3,632.3,604.9,632.3z"/>
		<path fill="#EEB738" d="M604.9,653.3h-7.2c-3.4,0-6.2,2.8-6.2,6.2v7.2c0,3.4,2.8,6.2,6.2,6.2h7.2c3.4,0,6.2-2.8,6.2-6.2v-7.2
			C611.1,656.1,608.3,653.3,604.9,653.3z"/>
		<path fill="#EEB738" d="M604.9,674.3h-7.2c-3.4,0-6.2,2.8-6.2,6.2v7.2c0,3.4,2.8,6.2,6.2,6.2h7.2c3.4,0,6.2-2.8,6.2-6.2v-7.2
			C611.1,677.1,608.3,674.3,604.9,674.3z"/>
		<path fill="#EEB738" d="M604.9,695.4h-7.2c-3.4,0-6.2,2.8-6.2,6.2v7.2c0,3.4,2.8,6.2,6.2,6.2h7.2c3.4,0,6.2-2.8,6.2-6.2v-7.2
			C611.1,698.1,608.3,695.4,604.9,695.4z"/>
		<path fill="#EEB738" d="M523.3,716.8h-7.2c-3.4,0-6.2,2.8-6.2,6.2v7.2c0,3.4,2.8,6.2,6.2,6.2h7.2c3.4,0,6.2-2.8,6.2-6.2V723
			C529.5,719.6,526.7,716.8,523.3,716.8z"/>
		<path fill="#F2CE37" d="M543.7,716.8h-7.2c-3.4,0-6.2,2.8-6.2,6.2v7.2c0,3.4,2.8,6.2,6.2,6.2h7.2c3.4,0,6.2-2.8,6.2-6.2V723
			C549.9,719.6,547.1,716.8,543.7,716.8z"/>
		<path fill="#F4EB38" d="M564.1,716.8h-7.2c-3.4,0-6.2,2.8-6.2,6.2v7.2c0,3.4,2.8,6.2,6.2,6.2h7.2c3.4,0,6.2-2.8,6.2-6.2V723
			C570.3,719.6,567.5,716.8,564.1,716.8z"/>
		<path fill="#F2CE37" d="M584.5,716.8h-7.2c-3.4,0-6.2,2.8-6.2,6.2v7.2c0,3.4,2.8,6.2,6.2,6.2h7.2c3.4,0,6.2-2.8,6.2-6.2V723
			C590.7,719.6,587.9,716.8,584.5,716.8z"/>
		<path fill="#EEB738" d="M604.9,716.8h-7.2c-3.4,0-6.2,2.8-6.2,6.2v7.2c0,3.4,2.8,6.2,6.2,6.2h7.2c3.4,0,6.2-2.8,6.2-6.2V723
			C611.1,719.6,608.3,716.8,604.9,716.8z"/>
		<path fill="#EEB738" d="M523.3,738.3h-7.2c-3.4,0-6.2,2.8-6.2,6.2v7.2c0,3.4,2.8,6.2,6.2,6.2h7.2c3.4,0,6.2-2.8,6.2-6.2v-7.2
			C529.5,741,526.7,738.3,523.3,738.3z"/>
		<path fill="#F2CE37" d="M543.7,738.3h-7.2c-3.4,0-6.2,2.8-6.2,6.2v7.2c0,3.4,2.8,6.2,6.2,6.2h7.2c3.4,0,6.2-2.8,6.2-6.2v-7.2
			C549.9,741,547.1,738.3,543.7,738.3z"/>
		<path fill="#F4EB38" d="M564.1,738.3h-7.2c-3.4,0-6.2,2.8-6.2,6.2v7.2c0,3.4,2.8,6.2,6.2,6.2h7.2c3.4,0,6.2-2.8,6.2-6.2v-7.2
			C570.3,741,567.5,738.3,564.1,738.3z"/>
		<path fill="#F2CE37" d="M584.5,738.3h-7.2c-3.4,0-6.2,2.8-6.2,6.2v7.2c0,3.4,2.8,6.2,6.2,6.2h7.2c3.4,0,6.2-2.8,6.2-6.2v-7.2
			C590.7,741,587.9,738.3,584.5,738.3z"/>
		<path fill="#EEB738" d="M604.9,738.3h-7.2c-3.4,0-6.2,2.8-6.2,6.2v7.2c0,3.4,2.8,6.2,6.2,6.2h7.2c3.4,0,6.2-2.8,6.2-6.2v-7.2
			C611.1,741,608.3,738.3,604.9,738.3z"/>
		<path fill="#EEB738" d="M523.3,759.7h-7.2c-3.4,0-6.2,2.8-6.2,6.2v7.2c0,3.4,2.8,6.2,6.2,6.2h7.2c3.4,0,6.2-2.8,6.2-6.2v-7.2
			C529.5,762.5,526.7,759.7,523.3,759.7z"/>
		<path fill="#F2CE37" d="M543.7,759.7h-7.2c-3.4,0-6.2,2.8-6.2,6.2v7.2c0,3.4,2.8,6.2,6.2,6.2h7.2c3.4,0,6.2-2.8,6.2-6.2v-7.2
			C549.9,762.5,547.1,759.7,543.7,759.7z"/>
		<path fill="#F4EB38" d="M564.1,759.7h-7.2c-3.4,0-6.2,2.8-6.2,6.2v7.2c0,3.4,2.8,6.2,6.2,6.2h7.2c3.4,0,6.2-2.8,6.2-6.2v-7.2
			C570.3,762.5,567.5,759.7,564.1,759.7z"/>
		<path fill="#F2CE37" d="M584.5,759.7h-7.2c-3.4,0-6.2,2.8-6.2,6.2v7.2c0,3.4,2.8,6.2,6.2,6.2h7.2c3.4,0,6.2-2.8,6.2-6.2v-7.2
			C590.7,762.5,587.9,759.7,584.5,759.7z"/>
		<path fill="#EEB738" d="M604.9,759.7h-7.2c-3.4,0-6.2,2.8-6.2,6.2v7.2c0,3.4,2.8,6.2,6.2,6.2h7.2c3.4,0,6.2-2.8,6.2-6.2v-7.2
			C611.1,762.5,608.3,759.7,604.9,759.7z"/>
	</g>
	<path fill="#63B046" d="M611.1,701.6c-37.3,22.4-50.6,65.5-50.6,65.5c-10.2-48.2-50.6-79.3-50.6-79.3c-29.1,108,14.9,127.8,38,131
		v20.6c0,5.1,4.1,9.3,9.3,9.3h3.1c5.1,0,9.3-4.1,9.3-9.3v-23.6C640,785.7,611.1,701.6,611.1,701.6z"/>
</g>
<g>
	<path fill="#5E9654" d="M764.7,587.9L764.7,587.9c-18.3,0-33.1,14.8-33.1,33.1v174.5c0,18,9.9,34.5,25.8,43c4.4,2.3,9.6,2.4,14,0
		l0.2-0.1c16-8.4,26.1-25,26.1-43.1V621C797.8,602.7,783,587.9,764.7,587.9z"/>
	<path fill="#63B046" d="M768.9,838.3l-0.1,0.1c-2.6,2.3-5.7,2.3-8.3,0l0,0c-9.4-8.5-15.3-25-15.3-43V621c0-18.3,8.8-33.1,19.6-33.1
		l0,0c10.8,0,19.6,14.8,19.6,33.1v174.3C784.3,813.3,778.4,829.9,768.9,838.3z"/>
	<circle fill="#8CC373" cx="766" cy="614.5" r="1.3"/>
	<circle fill="#8CC373" cx="743.8" cy="628.3" r="1.3"/>
	<circle fill="#8CC373" cx="775.8" cy="646.4" r="1.3"/>
	<circle fill="#8CC373" cx="761" cy="634.3" r="1.3"/>
	<circle fill="#8CC373" cx="789" cy="621.6" r="1.3"/>
	<circle fill="#8CC373" cx="793.2" cy="662.8" r="1.3"/>
	<circle fill="#8CC373" cx="770.6" cy="665.4" r="1.3"/>
	<circle fill="#8CC373" cx="741.2" cy="683.2" r="1.3"/>
	<circle fill="#8CC373" cx="753.6" cy="660.2" r="1.3"/>
	<circle fill="#8CC373" cx="766" cy="677.1" r="1.3"/>
	<circle fill="#8CC373" cx="743.8" cy="690.9" r="1.3"/>
	<circle fill="#8CC373" cx="775.8" cy="709" r="1.3"/>
	<circle fill="#8CC373" cx="761" cy="696.9" r="1.3"/>
	<circle fill="#8CC373" cx="789" cy="684.1" r="1.3"/>
	<circle fill="#8CC373" cx="793.2" cy="725.4" r="1.3"/>
	<circle fill="#8CC373" cx="770.6" cy="727.9" r="1.3"/>
	<circle fill="#8CC373" cx="741.2" cy="745.8" r="1.3"/>
	<circle fill="#8CC373" cx="753.6" cy="722.8" r="1.3"/>
	<circle fill="#8CC373" cx="763.5" cy="737.8" r="1.3"/>
	<circle fill="#8CC373" cx="741.3" cy="751.6" r="1.3"/>
	<circle fill="#8CC373" cx="773.3" cy="769.7" r="1.3"/>
	<circle fill="#8CC373" cx="758.5" cy="757.6" r="1.3"/>
	<circle fill="#8CC373" cx="786.5" cy="744.8" r="1.3"/>
	<circle fill="#8CC373" cx="790.7" cy="786" r="1.3"/>
	<circle fill="#8CC373" cx="768.1" cy="788.6" r="1.3"/>
	<circle fill="#8CC373" cx="738.7" cy="806.5" r="1.3"/>
	<circle fill="#8CC373" cx="751.1" cy="783.5" r="1.3"/>
</g>
<g>
	<path fill="#7C5220" d="M1128.5,602.1l-3.3,1.5l-3.3,1.5c-12.7,5.7-14,30.1-3.1,54.5l29.8,53.1c15.1,26.9,31.7,52.2,49.4,75.4
		l6.6,8.7c5.3,6.9,13.6,3.2,12-5.4l-2.1-10.7c-5.5-28.6-13.4-57.9-23.4-87l-19.8-57.6C1160.3,611.7,1141.2,596.5,1128.5,602.1z"/>
	<path fill="#7C5220" d="M1128.5,605.2l-3.3-1.5l-3.3-1.5c-12.6-5.8-31.9,9.3-43,33.7l-20.2,57.4c-10.2,29.1-18.3,58.3-24,86.9
		l-2.1,10.7c-1.7,8.5,6.6,12.3,11.9,5.4l6.7-8.6c17.9-23,34.6-48.3,49.9-75.1l30.1-52.9C1142.4,635.3,1141.1,610.9,1128.5,605.2z"/>
	<path fill="#8C6334" d="M1128.9,603.6h-3.7h-3.7c-13.9,0-25.1,21.7-25.1,48.5l5.5,60.6c2.8,30.7,7.6,60.6,14.3,89l2.5,10.6
		c2,8.5,11.1,8.5,13.1,0l2.5-10.6c6.7-28.4,11.5-58.3,14.2-89l5.5-60.6C1154,625.3,1142.7,603.6,1128.9,603.6z"/>
</g>
<g>
	<rect x="929.7" y="576.5" fill="#5E9654" width="8.6" height="36.7"/>
	<rect x="915.5" y="577.6" fill="#5E9654" width="8.6" height="36.7"/>
	<rect x="922.1" y="570.6" fill="#63B046" width="8.6" height="36.7"/>
	<path fill="#EF8522" d="M931.2,603.6h-4.8h-4.8c-18.2,0-33,21.7-33,48.5l7.2,60.6c3.6,30.7,9.9,60.6,18.7,89l3.3,10.6
		c2.6,8.5,14.6,8.5,17.2,0l3.3-10.6c8.8-28.4,15.1-58.3,18.7-89l7.2-60.6C964.2,625.3,949.4,603.6,931.2,603.6z"/>
	<ellipse fill="#F49B51" cx="909.5" cy="622" rx="14.6" ry="1.7"/>
	<ellipse fill="#F49B51" cx="948.6" cy="637.4" rx="14.6" ry="1.7"/>
	<ellipse fill="#F49B51" cx="903.3" cy="668.4" rx="14.6" ry="1.7"/>
	<ellipse fill="#F49B51" cx="946.5" cy="687.2" rx="14.6" ry="1.7"/>
	<ellipse fill="#F49B51" cx="910.4" cy="714" rx="14.6" ry="1.7"/>
	<ellipse fill="#F49B51" cx="938.4" cy="746.1" rx="14.6" ry="1.7"/>
</g>
</svg>
