<?xml version="1.0" encoding="utf-8"?>
<!-- Generator: Adobe Illustrator 18.0.0, SVG Export Plug-In . SVG Version: 6.00 Build 0)  -->
<!DOCTYPE svg PUBLIC "-//W3C//DTD SVG 1.1//EN" "http://www.w3.org/Graphics/SVG/1.1/DTD/svg11.dtd">
<svg version="1.1" id="Layer_1" xmlns="http://www.w3.org/2000/svg" xmlns:xlink="http://www.w3.org/1999/xlink" x="0px" y="0px"
	 width="1400px" height="980px" viewBox="0 0 1400 980" enable-background="new 0 0 1400 980" xml:space="preserve">
   <g>
	<path fill="#64A648" d="M389.4,682.2c0.7-10.7-4.6-20.5-13.1-25.9c-1.6-1-2.7-2.8-2.9-4.7c-0.9-14.1-9.9-26.2-22.7-31.4
		c-1.6-0.6-2.8-2-3.3-3.6c-4.5-13.6-16.9-23.8-32-24.9c-13-0.9-24.9,5.2-32,15.1c-1.3,1.8-3.4,2.7-5.6,2.6c0,0,0,0,0,0
		c-15.2-1-28.8,7.5-35.1,20.4c-0.9,2-2.9,3.2-5,3.4c-13.6,1.3-24.7,12.3-25.6,26.4c-0.9,13.9,8.2,26,21.1,29.5l1.9,76.9
		c0.6,24,18.2,44.2,41.9,48.2c23.7,3.9,46.9-9.5,55.2-32.1l27-73.3C374.9,709.6,388.4,697.8,389.4,682.2z"/>
	<path fill="#5E9654" d="M336.4,651.3c-3.1-10.3-11.4-17.6-21.3-19.7c-1.9-0.4-3.5-1.6-4.3-3.4c-5.7-12.9-18.4-21.1-32.2-21.5
		c-1.7,0-3.3-0.9-4.4-2.2c-9-11.2-24.1-16.5-38.7-12.2c-12.5,3.7-21.5,13.6-24.7,25.3c-0.6,2.1-2.3,3.7-4.4,4.4c0,0,0,0,0,0
		c-14.6,4.3-24.4,17-25.8,31.3c-0.2,2.2-1.6,4-3.5,5c-12.3,6-18.8,20.1-14.8,33.7c3.9,13.3,16.8,21.6,30.1,20.3l28.6,71.4
		c8.9,22.3,32.5,35.1,56.1,30.6c23.6-4.6,40.6-25.3,40.6-49.3l-0.2-78.2C332.4,682.1,340.9,666.3,336.4,651.3z"/>
	<path fill="#63B046" d="M366.4,665.6c-1-10.7-7.9-19.4-17.1-23.4c-1.8-0.8-3.2-2.3-3.6-4.2c-3.2-13.8-14.1-24.3-27.5-27.3
		c-1.7-0.4-3.1-1.5-3.9-3c-6.7-12.7-20.5-20.8-35.7-19.3c-13,1.3-23.7,9.2-29.1,20.1c-1,2-2.9,3.2-5.1,3.4c0,0,0,0,0,0
		c-15.2,1.5-27.2,12.1-31.3,25.8c-0.6,2.1-2.3,3.6-4.4,4.2c-13.2,3.5-22.3,16.2-21,30.2c1.3,13.8,12.3,24.4,25.7,25.6l14.5,75.5
		c4.5,23.6,25.2,40.7,49.2,40.7s44.7-17.1,49.2-40.7l14.7-76.8C356.5,695.1,367.9,681.2,366.4,665.6z"/>
	<g>
		<path fill="#8FC178" d="M314.5,752.7l-24.1,19.2v-21.1l17.2-35.4L289,728.6l-0.5-27.4l7.3-16.9l-12.2,6.3l-6.5-26.8l-6.5,26.8
			l-12.2-6.3l7.3,16.9l-0.5,27.4l-18.7-13.3l17.2,35.4v21.1l-24.1-19.2l20.1,37.3l3.3,22c4.5,1.3,9.2,2,14,2s9.5-0.7,14-2l3.3-22
			L314.5,752.7z"/>
	</g>
</g>
</svg>